<?xml version="1.0" encoding="UTF-8" standalone="no"?>
<svg
   xmlns:dc="http://purl.org/dc/elements/1.1/"
   xmlns:cc="http://creativecommons.org/ns#"
   xmlns:rdf="http://www.w3.org/1999/02/22-rdf-syntax-ns#"
   xmlns:svg="http://www.w3.org/2000/svg"
   xmlns="http://www.w3.org/2000/svg"
   xmlns:sodipodi="http://sodipodi.sourceforge.net/DTD/sodipodi-0.dtd"
   xmlns:inkscape="http://www.inkscape.org/namespaces/inkscape"
   sodipodi:docname="codeigniter.svg"
   inkscape:version="1.0 (4035a4fb49, 2020-05-01)"
   id="svg8"
   version="1.1"
   viewBox="0 0 52.916665 52.916668"
   height="200"
   width="200">
  <defs
     id="defs2" />
  <sodipodi:namedview
     units="px"
     inkscape:window-maximized="1"
     inkscape:window-y="-8"
     inkscape:window-x="-8"
     inkscape:window-height="705"
     inkscape:window-width="1366"
     showgrid="false"
     inkscape:document-rotation="0"
     inkscape:current-layer="layer1"
     inkscape:document-units="px"
     inkscape:cy="39.575798"
     inkscape:cx="64.211038"
     inkscape:zoom="1.3345528"
     inkscape:pageshadow="2"
     inkscape:pageopacity="0.0"
     borderopacity="1.0"
     bordercolor="#666666"
     pagecolor="#ffffff"
     id="base" />
  <metadata
     id="metadata5">
    <rdf:RDF>
      <cc:Work
         rdf:about="">
        <dc:format>image/svg+xml</dc:format>
        <dc:type
           rdf:resource="http://purl.org/dc/dcmitype/StillImage" />
        <dc:title></dc:title>
      </cc:Work>
    </rdf:RDF>
  </metadata>
  <g
     id="layer1"
     inkscape:groupmode="layer"
     inkscape:label="Layer 1">
    <path
       id="path980"
       d="M 17.147618,52.11102 C 14.562721,51.11662 12.582088,49.788788 10.686686,47.779564 7.4980561,44.399451 6.0879223,40.389715 6.3514525,35.452267 6.7468338,28.044504 10.464361,21.758372 19.577544,13.087682 c 2.714545,-2.58274 4.452861,-4.7901613 5.495504,-6.9785354 0.871778,-1.8297508 1.200939,-3.9395975 0.784418,-5.027945 -0.1609,-0.42042147 -0.242359,-0.8145876 -0.181024,-0.87592419 0.205331,-0.205331018946 2.086145,1.88785349 3.121155,3.47357589 2.135798,3.2722231 2.569358,6.6348797 1.412303,10.9537317 -1.107051,4.132215 -0.828149,6.600623 0.911158,8.064152 2.005097,1.687178 5.308064,0.248409 5.308064,-2.312188 v -0.672244 l 1.388671,0.854457 c 3.451423,2.123679 6.870398,6.300421 8.177608,9.990045 0.519258,1.465635 0.608071,2.22881 0.60045,5.160079 -0.0079,3.066872 -0.0836,3.630183 -0.697146,5.19273 -1.269735,3.233685 -3.06269,5.622995 -5.864817,7.815511 -1.841621,1.440967 -5.41275,3.34032 -6.912507,3.676507 -0.699136,0.156721 -0.645547,0.08145 0.449142,-0.630919 6.286559,-4.090932 6.8445,-11.364694 1.30209,-16.974953 C 33.909437,33.820794 31.64359,32.036274 29.8374,30.830157 24.815464,27.476666 23.556825,26.144838 23.202107,23.809013 l -0.160741,-1.058478 -0.831431,1.282979 c -0.94816,1.463102 -1.461047,3.454335 -1.217775,4.727891 0.239404,1.25331 1.188461,3.023671 2.565661,4.785952 2.558475,3.273855 1.581871,6.79634 -1.885115,6.79938 -0.916657,8.24e-4 -1.314083,-0.16903 -2.116957,-0.904635 -0.933643,-0.85542 -0.988436,-0.994736 -0.988436,-2.513145 0,-0.884137 -0.07302,-1.607855 -0.162251,-1.608258 -0.08925,-5.3e-4 -0.69296,0.566623 -1.341597,1.260071 -3.301729,3.529814 -4.213123,7.76017 -2.448784,11.366352 0.711023,1.453275 2.507401,3.510227 3.820324,4.374479 0.886636,0.583642 0.69619,0.552492 -1.287387,-0.210581 z"
       style="fill:#000000;stroke-width:0.26462" />
  </g>
</svg>
