<?xml version="1.0" encoding="UTF-8" standalone="no"?>
<svg
   xmlns:dc="http://purl.org/dc/elements/1.1/"
   xmlns:cc="http://creativecommons.org/ns#"
   xmlns:rdf="http://www.w3.org/1999/02/22-rdf-syntax-ns#"
   xmlns:svg="http://www.w3.org/2000/svg"
   xmlns="http://www.w3.org/2000/svg"
   xmlns:sodipodi="http://sodipodi.sourceforge.net/DTD/sodipodi-0.dtd"
   xmlns:inkscape="http://www.inkscape.org/namespaces/inkscape"
   sodipodi:docname="laravel.svg"
   inkscape:version="1.0 (4035a4fb49, 2020-05-01)"
   id="svg8"
   version="1.1"
   viewBox="0 0 52.916665 52.916668"
   height="200"
   width="200">
  <defs
     id="defs2" />
  <sodipodi:namedview
     units="px"
     inkscape:window-maximized="1"
     inkscape:window-y="-8"
     inkscape:window-x="-8"
     inkscape:window-height="705"
     inkscape:window-width="1366"
     showgrid="false"
     inkscape:document-rotation="0"
     inkscape:current-layer="layer1"
     inkscape:document-units="px"
     inkscape:cy="144.46215"
     inkscape:cx="21.55958"
     inkscape:zoom="1.3345528"
     inkscape:pageshadow="2"
     inkscape:pageopacity="0.0"
     borderopacity="1.0"
     bordercolor="#666666"
     pagecolor="#ffffff"
     id="base" />
  <metadata
     id="metadata5">
    <rdf:RDF>
      <cc:Work
         rdf:about="">
        <dc:format>image/svg+xml</dc:format>
        <dc:type
           rdf:resource="http://purl.org/dc/dcmitype/StillImage" />
        <dc:title></dc:title>
      </cc:Work>
    </rdf:RDF>
  </metadata>
  <g
     id="layer1"
     inkscape:groupmode="layer"
     inkscape:label="Layer 1">
    <path
       style="stroke-width:1.03027"
       d="m 52.007747,12.040588 a 0.8334798,0.8334798 0 0 1 0.02881,0.215334 v 11.304003 a 0.82420746,0.82420746 0 0 1 -0.414132,0.715001 l -9.487659,5.462434 v 10.826996 c 0,0.294651 -0.156613,0.566643 -0.412102,0.715001 L 21.917987,52.680205 c -0.04532,0.0257 -0.09477,0.04226 -0.144229,0.05977 -0.01869,0.0061 -0.0362,0.01751 -0.05565,0.02258 a 0.82935874,0.82935874 0 0 1 -0.422404,0 c -0.02258,-0.0061 -0.04326,-0.01869 -0.06491,-0.02686 -0.04532,-0.01635 -0.09272,-0.03075 -0.135975,-0.05565 L 1.2942728,41.279354 A 0.82523771,0.82523771 0 0 1 0.88010973,40.564353 V 6.6523398 c 0,-0.074173 0.0100937,-0.1462939 0.0288104,-0.2163452 0.006203,-0.023749 0.0206339,-0.04532 0.0288104,-0.069041 0.0155729,-0.043258 0.0299776,-0.087569 0.0525297,-0.1277564 0.0155729,-0.026863 0.0381541,-0.048406 0.0566546,-0.073165 0.023748,-0.033092 0.04532,-0.066978 0.073121,-0.095831 0.023749,-0.023749 0.054592,-0.041196 0.081383,-0.061801 0.029978,-0.024918 0.056655,-0.051521 0.090655,-0.071103 h 0.00103 L 11.193895,0.23687358 a 0.82626794,0.82626794 0 0 1 0.824207,0 l 9.900793,5.70042392 h 0.002 c 0.0331,0.020634 0.06078,0.046373 0.09065,0.070049 0.02686,0.020634 0.05666,0.039134 0.08038,0.061831 0.02881,0.029979 0.04945,0.063864 0.07418,0.096841 0.01751,0.024918 0.0412,0.046373 0.05565,0.073164 0.02375,0.041196 0.03699,0.084498 0.05358,0.1277564 0.0082,0.023749 0.02258,0.04532 0.02881,0.070049 a 0.8334798,0.8334798 0 0 1 0.02881,0.215333 V 27.833425 l 8.250304,-4.750528 V 12.254872 c 0,-0.0721 0.01013,-0.14528 0.02881,-0.214282 0.0074,-0.02492 0.02064,-0.04638 0.02881,-0.07005 0.01635,-0.04326 0.03075,-0.08757 0.05357,-0.127757 0.01557,-0.02686 0.03815,-0.04844 0.05565,-0.07312 0.02492,-0.0331 0.04532,-0.06699 0.07418,-0.09583 0.02375,-0.02375 0.05357,-0.0412 0.08037,-0.06182 0.03075,-0.02453 0.05771,-0.05152 0.09065,-0.07111 h 0.001 L 40.89812,5.8404807 a 0.82523771,0.82523771 0 0 1 0.824209,0 l 9.900793,5.7004223 c 0.03504,0.02064 0.06181,0.04638 0.09272,0.07005 0.0257,0.02064 0.05565,0.03913 0.07932,0.0618 0.02881,0.02998 0.04945,0.06386 0.07417,0.09685 0.01869,0.02492 0.0412,0.04638 0.05565,0.07316 0.02375,0.04018 0.03699,0.0845 0.05358,0.127757 0.0095,0.02375 0.02258,0.04532 0.02881,0.07005 z m -1.621628,11.04232 v -9.400086 l -3.464759,1.994583 -4.786588,2.75594 v 9.400089 l 8.252379,-4.750526 z m -9.900793,17.00443 V 30.68107 l -4.708286,2.688975 -13.444883,7.673372 v 9.49487 z M 2.5305728,8.0792407 V 40.087338 L 20.68168,50.537254 v -9.492805 l -9.482504,-5.366623 -0.003,-0.002 -0.0043,-0.002 c -0.03192,-0.01869 -0.05871,-0.04532 -0.08858,-0.06798 -0.0257,-0.02063 -0.05565,-0.03699 -0.07832,-0.05977 l -0.002,-0.003 c -0.02686,-0.0257 -0.04532,-0.05771 -0.06798,-0.08652 -0.02063,-0.02765 -0.04532,-0.05152 -0.06184,-0.08038 l -10e-4,-0.003 c -0.01869,-0.03075 -0.02998,-0.06798 -0.04326,-0.103027 -0.01327,-0.03075 -0.03075,-0.05977 -0.03913,-0.09272 v -10e-4 c -0.01013,-0.03913 -0.0124,-0.08038 -0.01635,-0.12056 -0.0043,-0.03075 -0.0124,-0.06184 -0.0124,-0.09272 v -0.002 -22.130996 L 5.9953717,10.073044 2.5306089,8.0805197 Z M 11.607158,1.9038657 3.3578707,6.6523313 11.605098,11.400795 19.853353,6.6513002 11.605098,1.9038657 Z M 15.897157,31.538245 20.682713,28.78333 V 8.0792407 l -3.464763,1.9945813 -4.786584,2.755946 v 20.704088 z m 25.413411,-24.030798 -8.248261,4.748466 8.248261,4.748463 8.247222,-4.749494 z m -0.825242,10.925898 -4.786583,-2.75594 -3.464764,-1.994583 v 9.400086 l 4.785556,2.754914 3.465791,1.995612 z m -18.979437,21.183164 12.098336,-6.906858 6.047622,-3.451371 -8.242076,-4.745371 -9.489719,5.463463 -8.649027,4.979243 z"
       fill="#ff2d20"
       fill-rule="evenodd"
       id="path897" />
  </g>
</svg>
