<?xml version="1.0" encoding="UTF-8" standalone="no"?>
<svg
   xmlns:dc="http://purl.org/dc/elements/1.1/"
   xmlns:cc="http://creativecommons.org/ns#"
   xmlns:rdf="http://www.w3.org/1999/02/22-rdf-syntax-ns#"
   xmlns:svg="http://www.w3.org/2000/svg"
   xmlns="http://www.w3.org/2000/svg"
   xmlns:sodipodi="http://sodipodi.sourceforge.net/DTD/sodipodi-0.dtd"
   xmlns:inkscape="http://www.inkscape.org/namespaces/inkscape"
   sodipodi:docname="logo-mysql.svg"
   inkscape:version="1.0 (4035a4fb49, 2020-05-01)"
   id="svg8"
   version="1.1"
   viewBox="0 0 52.916665 52.916668"
   height="200"
   width="200">
  <defs
     id="defs2" />
  <sodipodi:namedview
     units="px"
     inkscape:window-maximized="1"
     inkscape:window-y="-8"
     inkscape:window-x="-8"
     inkscape:window-height="705"
     inkscape:window-width="1366"
     showgrid="false"
     inkscape:document-rotation="0"
     inkscape:current-layer="layer1"
     inkscape:document-units="px"
     inkscape:cy="161.28161"
     inkscape:cx="136.89291"
     inkscape:zoom="1.3345528"
     inkscape:pageshadow="2"
     inkscape:pageopacity="0.0"
     borderopacity="1.0"
     bordercolor="#666666"
     pagecolor="#ffffff"
     id="base" />
  <metadata
     id="metadata5">
    <rdf:RDF>
      <cc:Work
         rdf:about="">
        <dc:format>image/svg+xml</dc:format>
        <dc:type
           rdf:resource="http://purl.org/dc/dcmitype/StillImage" />
        <dc:title></dc:title>
      </cc:Work>
    </rdf:RDF>
  </metadata>
  <g
     id="layer1"
     inkscape:groupmode="layer"
     inkscape:label="Layer 1">
    <g
       transform="matrix(0.31255212,0,0,0.31255212,-162.64195,-100.20384)"
       id="g964">
      <path
         fill-rule="evenodd"
         clip-rule="evenodd"
         fill="#5d87a1"
         d="m 635.866,359.769 c -0.794,0 -1.354,0.095 -1.919,0.235 v 0.094 h 0.092 c 0.378,0.747 1.033,1.265 1.498,1.92 0.377,0.749 0.704,1.495 1.078,2.244 0.047,-0.045 0.092,-0.094 0.092,-0.094 0.659,-0.466 0.986,-1.215 0.986,-2.34 -0.282,-0.329 -0.327,-0.654 -0.563,-0.983 -0.279,-0.467 -0.889,-0.701 -1.264,-1.076"
         id="path929" />
      <g
         id="g945">
	<path
   fill="#00758f"
   d="m 561.405,452.153 h -6.483 c -0.229,-10.942 -0.86,-21.232 -1.894,-30.872 h -0.057 l -9.871,30.872 h -4.937 l -9.812,-30.872 h -0.058 c -0.728,9.258 -1.186,19.548 -1.376,30.872 h -5.911 c 0.382,-13.772 1.338,-26.684 2.868,-38.735 h 8.035 l 9.354,28.462 h 0.058 l 9.411,-28.462 h 7.688 c 1.685,14.115 2.68,27.029 2.985,38.735"
   id="path931" />

	<path
   fill="#00758f"
   d="m 589.523,423.575 c -2.64,14.324 -6.122,24.734 -10.444,31.229 -3.368,5.004 -7.058,7.506 -11.075,7.506 -1.071,0 -2.392,-0.323 -3.959,-0.964 v -3.453 c 0.766,0.112 1.664,0.172 2.697,0.172 1.874,0 3.385,-0.518 4.534,-1.552 1.376,-1.26 2.064,-2.676 2.064,-4.245 0,-1.072 -0.537,-3.271 -1.606,-6.598 l -7.115,-22.095 h 6.369 l 5.106,16.524 c 1.147,3.752 1.626,6.371 1.435,7.864 2.793,-7.46 4.744,-15.59 5.854,-24.389 h 6.14 z"
   id="path933" />

	<polygon
   fill="#f29111"
   points="675.828,452.153 657.408,452.153 657.408,413.418 663.606,413.418 663.606,447.389 675.828,447.389 "
   id="polygon935" />

	<path
   fill-rule="evenodd"
   clip-rule="evenodd"
   fill="#f29111"
   d="m 652.589,453.088 -7.12,-3.511 c 0.634,-0.521 1.236,-1.081 1.781,-1.73 3.022,-3.554 4.535,-8.814 4.535,-15.778 0,-12.814 -5.03,-19.226 -15.092,-19.226 -4.935,0 -8.78,1.625 -11.535,4.88 -3.023,3.558 -4.533,8.798 -4.533,15.723 0,6.81 1.338,11.805 4.016,14.978 2.449,2.868 6.141,4.304 11.077,4.304 1.843,0 3.534,-0.227 5.071,-0.681 l 9.271,5.396 z m -23.068,-8.684 c -1.569,-2.524 -2.354,-6.576 -2.354,-12.163 0,-9.755 2.966,-14.635 8.895,-14.635 3.1,0 5.375,1.167 6.83,3.499 1.567,2.526 2.353,6.543 2.353,12.052 0,9.832 -2.966,14.75 -8.895,14.75 -3.1,0 -5.376,-1.165 -6.829,-3.503"
   id="path937" />

	<path
   fill="#f29111"
   d="m 617.924,441.417 c 0,3.285 -1.207,5.981 -3.613,8.092 -2.408,2.101 -5.643,3.154 -9.694,3.154 -3.788,0 -7.461,-1.212 -11.018,-3.617 l 1.664,-3.327 c 3.061,1.53 5.831,2.294 8.318,2.294 2.333,0 4.158,-0.519 5.479,-1.545 1.318,-1.033 2.108,-2.474 2.108,-4.302 0,-2.301 -1.604,-4.267 -4.547,-5.915 -2.718,-1.491 -8.147,-4.604 -8.147,-4.604 -2.942,-2.146 -4.417,-4.449 -4.417,-8.243 0,-3.138 1.1,-5.674 3.297,-7.604 2.202,-1.934 5.043,-2.9 8.522,-2.9 3.596,0 6.865,0.96 9.811,2.872 l -1.496,3.324 c -2.52,-1.068 -5.005,-1.604 -7.455,-1.604 -1.987,0 -3.52,0.478 -4.588,1.438 -1.074,0.952 -1.737,2.177 -1.737,3.67 0,2.294 1.639,4.284 4.664,5.965 2.752,1.492 8.314,4.665 8.314,4.665 3.027,2.141 4.535,4.424 4.535,8.187"
   id="path939" />

	<path
   fill-rule="evenodd"
   clip-rule="evenodd"
   fill="#00758f"
   d="m 683.605,400.442 c -3.746,-0.094 -6.646,0.28 -9.08,1.311 -0.702,0.28 -1.823,0.28 -1.92,1.17 0.377,0.374 0.422,0.981 0.752,1.499 0.561,0.936 1.541,2.197 2.433,2.854 0.982,0.749 1.966,1.495 2.997,2.15 1.823,1.128 3.884,1.78 5.659,2.904 1.033,0.654 2.06,1.496 3.093,2.2 0.513,0.374 0.838,0.983 1.495,1.215 v -0.142 c -0.329,-0.42 -0.422,-1.028 -0.747,-1.499 -0.468,-0.465 -0.937,-0.889 -1.405,-1.354 -1.358,-1.825 -3.045,-3.415 -4.866,-4.726 -1.499,-1.032 -4.777,-2.437 -5.383,-4.163 0,0 -0.049,-0.05 -0.095,-0.096 1.029,-0.095 2.249,-0.47 3.23,-0.754 1.589,-0.42 3.04,-0.325 4.678,-0.745 0.75,-0.188 1.499,-0.424 2.251,-0.654 v -0.424 c -0.847,-0.841 -1.452,-1.966 -2.342,-2.761 -2.385,-2.059 -5.009,-4.069 -7.723,-5.757 -1.453,-0.937 -3.325,-1.542 -4.87,-2.34 -0.559,-0.281 -1.494,-0.42 -1.823,-0.891 -0.843,-1.029 -1.313,-2.385 -1.92,-3.604 -1.355,-2.571 -2.669,-5.425 -3.837,-8.144 -0.842,-1.824 -1.357,-3.648 -2.387,-5.334 -4.823,-7.958 -10.063,-12.776 -18.113,-17.504 -1.732,-0.985 -3.791,-1.405 -5.989,-1.92 -1.172,-0.049 -2.341,-0.14 -3.511,-0.186 -0.75,-0.329 -1.5,-1.219 -2.154,-1.64 -2.669,-1.684 -9.546,-5.334 -11.513,-0.514 -1.264,3.044 1.872,6.038 2.949,7.583 0.795,1.075 1.826,2.294 2.385,3.509 0.328,0.796 0.422,1.64 0.751,2.481 0.748,2.059 1.449,4.353 2.434,6.273 0.514,0.983 1.074,2.014 1.729,2.899 0.378,0.518 1.031,0.749 1.172,1.594 -0.653,0.935 -0.704,2.339 -1.078,3.51 -1.684,5.289 -1.029,11.841 1.358,15.725 0.747,1.17 2.527,3.745 4.915,2.76 2.105,-0.841 1.638,-3.509 2.246,-5.848 0.14,-0.565 0.046,-0.937 0.326,-1.311 v 0.095 c 0.654,1.309 1.312,2.569 1.92,3.884 1.452,2.291 3.978,4.679 6.086,6.269 1.12,0.846 2.01,2.294 3.414,2.811 v -0.142 h -0.093 c -0.281,-0.42 -0.701,-0.608 -1.076,-0.935 -0.843,-0.843 -1.776,-1.873 -2.435,-2.809 -1.965,-2.62 -3.699,-5.523 -5.24,-8.519 -0.751,-1.454 -1.404,-3.044 -2.014,-4.494 -0.28,-0.559 -0.28,-1.404 -0.749,-1.684 -0.704,1.028 -1.73,1.919 -2.245,3.179 -0.89,2.015 -0.982,4.495 -1.313,7.07 -0.187,0.049 -0.093,0 -0.187,0.093 -1.496,-0.374 -2.011,-1.918 -2.574,-3.225 -1.403,-3.327 -1.64,-8.663 -0.421,-12.5 0.326,-0.981 1.734,-4.07 1.17,-5.006 -0.282,-0.893 -1.218,-1.403 -1.731,-2.108 -0.607,-0.889 -1.267,-2.01 -1.684,-2.995 -1.124,-2.62 -1.688,-5.523 -2.901,-8.143 -0.563,-1.219 -1.547,-2.483 -2.34,-3.604 -0.892,-1.264 -1.873,-2.153 -2.576,-3.649 -0.232,-0.516 -0.561,-1.359 -0.188,-1.919 0.093,-0.375 0.282,-0.516 0.657,-0.611 0.605,-0.514 2.339,0.14 2.946,0.421 1.732,0.7 3.184,1.359 4.633,2.34 0.656,0.469 1.358,1.358 2.199,1.594 h 0.984 c 1.497,0.325 3.184,0.091 4.589,0.514 2.479,0.795 4.725,1.965 6.738,3.229 6.129,3.885 11.185,9.409 14.6,16.007 0.563,1.075 0.799,2.059 1.313,3.18 0.983,2.298 2.201,4.638 3.182,6.882 0.982,2.2 1.921,4.444 3.326,6.272 0.7,0.981 3.51,1.496 4.773,2.012 0.934,0.42 2.387,0.795 3.229,1.309 1.592,0.981 3.18,2.106 4.68,3.185 0.75,0.565 3.091,1.734 3.231,2.671"
   id="path941" />

	<path
   fill="#f29111"
   d="m 688.066,452.149 h 0.968 v -4.746 h -1.455 l -1.186,3.235 -1.29,-3.235 H 683.7 v 4.746 h 0.916 v -3.611 h 0.053 l 1.351,3.611 h 0.698 l 1.349,-3.611 v 3.611 z m -7.814,0 h 1.026 v -3.94 h 1.345 v -0.806 h -3.768 v 0.806 h 1.396 v 3.94 z"
   id="path943" />

</g>
    </g>
  </g>
</svg>
